HIERARCHY
ROOT Hips
{
	OFFSET 0.000000 0.000000 0.000000
	CHANNELS 6 Xposition Yposition Zposition Zrotation Yrotation Xrotation 
	JOINT LowerBack
	{
		OFFSET 0.000000 0.000000 0.000000
		CHANNELS 3 Zrotation Yrotation Xrotation
		JOINT Spine
		{
			OFFSET 0.028270 2.035590 -0.193380
			CHANNELS 3 Zrotation Yrotation Xrotation
			JOINT Spine1
			{
				OFFSET 0.056720 2.048850 -0.042750
				CHANNELS 3 Zrotation Yrotation Xrotation
				JOINT Neck
				{
					OFFSET 0.000000 0.000000 0.000000
					CHANNELS 3 Zrotation Yrotation Xrotation
					JOINT Neck1
					{
						OFFSET -0.054170 1.746240 0.172020
						CHANNELS 3 Zrotation Yrotation Xrotation
						JOINT Head
						{
							OFFSET 0.104070 1.761360 -0.123970
							CHANNELS 3 Zrotation Yrotation Xrotation
							End Site
							{
								OFFSET 0.000000 0.000000 0.000000
							}
						}
					}
				}
				JOINT LeftShoulder
				{
					OFFSET 0.000000 0.000000 0.000000
					CHANNELS 3 Zrotation Yrotation Xrotation
					JOINT LeftArm
					{
						OFFSET 3.362410 1.200890 -0.311210
						CHANNELS 3 Zrotation Yrotation Xrotation
						JOINT LeftForeArm
						{
							OFFSET 4.983000 -0.000000 -0.000000
							CHANNELS 3 Zrotation Yrotation Xrotation
							JOINT LeftHand
							{
								OFFSET 3.483560 -0.000000 -0.000000
								CHANNELS 3 Zrotation Yrotation Xrotation
								JOINT LeftFingerBase
								{
									OFFSET 0.000000 0.000000 0.000000
									CHANNELS 3 Zrotation Yrotation Xrotation
									JOINT LeftHandIndex1
									{
										OFFSET 0.715260 -0.000000 -0.000000
										CHANNELS 3 Zrotation Yrotation Xrotation
										End Site
										{
											OFFSET 0.000000 0.000000 0.000000
										}
									}
								}
								JOINT LThumb
								{
									OFFSET 0.000000 0.000000 0.000000
									CHANNELS 3 Zrotation Yrotation Xrotation
									End Site
									{
										OFFSET 0.000000 0.000000 0.000000
									}
								}
							}
						}
					}
				}
				JOINT RightShoulder
				{
					OFFSET 0.000000 0.000000 0.000000
					CHANNELS 3 Zrotation Yrotation Xrotation
					JOINT RightArm
					{
						OFFSET -3.136600 1.374050 -0.404650
						CHANNELS 3 Zrotation Yrotation Xrotation
						JOINT RightForeArm
						{
							OFFSET -5.241900 -0.000000 -0.000000
							CHANNELS 3 Zrotation Yrotation Xrotation
							JOINT RightHand
							{
								OFFSET -3.444170 -0.000000 -0.000000
								CHANNELS 3 Zrotation Yrotation Xrotation
								JOINT RightFingerBase
								{
									OFFSET 0.000000 0.000000 0.000000
									CHANNELS 3 Zrotation Yrotation Xrotation
									JOINT RightHandIndex1
									{
										OFFSET -0.622530 -0.000000 -0.000000
										CHANNELS 3 Zrotation Yrotation Xrotation
										End Site
										{
											OFFSET 0.000000 0.000000 0.000000
										}
									}
								}
								JOINT RThumb
								{
									OFFSET 0.000000 0.000000 0.000000
									CHANNELS 3 Zrotation Yrotation Xrotation
									End Site
									{
										OFFSET 0.000000 0.000000 0.000000
									}
								}
							}
						}
					}
				}
			}
		}
	}
}
}
MOTION
Frames: 7
Frame Time: 0.008333
2.722566 16.871328 3.121115 -46.039394 -53.529536 42.320808 9.906738 -1.970646 7.376967 1.105118 -2.257450 -1.979632 -6.498992 -2.390668 -2.515038 5.651315 -3.919073 -5.104447 -1.086541 -0.111152 0.522606 0.000000 0.000000 0.000000 9.591383 -4.595535 2.580632 -33.287653 -11.317141 39.841456 -0.243695 -83.222592 0.020197 -9.127023 -10.136176 0.855299 0.184389 0.345016 -0.000000 0.000000 0.000000 0.000000 0.000000 0.000000 0.000000 0.237844 1.203420 1.818406 57.357659 -28.111970 34.145235 1.404034 55.935145 0.005809 -3.608774 5.992132 -0.192954 0.065957 -0.034491 0.000000 0.000000 0.000000 0.000000 0.000000 0.000000 0.000000 
2.735115 16.842045 3.115359 -45.757241 -53.577166 42.143894 9.966447 -2.012194 7.463904 1.115996 -2.298236 -1.961310 -6.493167 -2.431120 -2.493653 5.615579 -3.908103 -5.098024 -1.087583 -0.111356 0.523671 0.000000 0.000000 0.000000 9.660275 -4.441932 2.566938 -33.200097 -11.254371 39.876726 -0.234936 -83.454171 0.020094 -9.134109 -10.109392 0.853779 0.185318 0.344808 -0.000000 0.000000 0.000000 0.000000 0.000000 0.000000 0.000000 0.198383 1.159818 1.803010 57.907484 -28.571529 33.786545 1.435456 55.621445 0.005999 -3.551582 6.032395 -0.191060 0.065560 -0.031825 0.000000 0.000000 0.000000 0.000000 0.000000 0.000000 0.000000 
2.749940 16.811973 3.111129 -45.486949 -53.643104 42.018527 10.041945 -2.055760 7.515853 1.132170 -2.343982 -1.950238 -6.479876 -2.476167 -2.471388 5.557165 -3.931569 -5.097519 -1.086437 -0.111370 0.523754 0.000000 0.000000 0.000000 9.727893 -4.291104 2.545343 -33.159546 -11.119737 39.901269 -0.225709 -83.709025 0.020016 -9.144289 -10.077458 0.852159 0.186353 0.344653 -0.000000 0.000000 0.000000 0.000000 0.000000 0.000000 0.000000 0.127502 1.083081 1.786934 58.458773 -29.026349 33.432971 1.463484 55.385642 0.006165 -3.494252 6.062124 -0.188865 0.065200 -0.029392 0.000000 0.000000 0.000000 0.000000 0.000000 0.000000 0.000000 
2.767598 16.781323 3.108274 -45.245855 -53.737403 41.955748 10.134616 -2.099157 7.542725 1.153883 -2.391924 -1.942820 -6.458762 -2.522761 -2.443756 5.473662 -4.005816 -5.112775 -1.081810 -0.110922 0.519734 0.000000 0.000000 0.000000 9.787631 -4.114100 2.519031 -33.151310 -10.954628 39.924471 -0.215977 -83.983727 0.019947 -9.139161 -10.040937 0.848740 0.187095 0.344674 -0.000000 0.000000 0.000000 0.000000 0.000000 0.000000 0.000000 0.019709 0.958041 1.770060 58.996579 -29.450630 33.118171 1.485689 55.242058 0.006293 -3.448053 6.076780 -0.186770 0.064906 -0.027233 0.000000 0.000000 0.000000 0.000000 0.000000 0.000000 0.000000 
2.788601 16.750404 3.106547 -45.048259 -53.873808 41.963222 10.238250 -2.140740 7.554072 1.179770 -2.439619 -1.936765 -6.429484 -2.568315 -2.410492 5.366416 -4.135080 -5.148025 -1.073052 -0.109879 0.510118 0.000000 0.000000 0.000000 9.844268 -3.900273 2.488656 -33.178634 -10.766662 39.947778 -0.205817 -84.275101 0.019876 -9.112177 -9.999111 0.842825 0.187394 0.344884 -0.000000 0.000000 0.000000 0.000000 0.000000 0.000000 0.000000 -0.125448 0.782822 1.752696 59.512259 -29.831597 32.863768 1.500595 55.197818 0.006386 -3.419394 6.080192 -0.185274 0.064670 -0.025418 0.000000 0.000000 0.000000 0.000000 0.000000 0.000000 0.000000 
2.813515 16.719726 3.105503 -44.898630 -54.071427 42.043966 10.333516 -2.179135 7.553203 1.205445 -2.484862 -1.934949 -6.392424 -2.611025 -2.385291 5.244369 -4.297401 -5.192477 -1.062817 -0.108603 0.497951 0.000000 0.000000 0.000000 9.931452 -3.709309 2.446837 -33.290958 -10.449586 39.945053 -0.195185 -84.592386 0.019821 -9.085896 -9.949024 0.836410 0.187790 0.345056 -0.000000 0.000000 0.000000 0.000000 0.000000 0.000000 0.000000 -0.289540 0.587423 1.738771 60.003602 -30.199046 32.645939 1.509750 55.264251 0.006438 -3.389281 6.075456 -0.183476 0.064385 -0.024052 0.000000 0.000000 0.000000 0.000000 0.000000 0.000000 0.000000 
2.841957 16.690186 3.104500 -44.787341 -54.354193 42.187711 10.393413 -2.212933 7.544666 1.225206 -2.525012 -1.932013 -6.348836 -2.647313 -2.352185 5.116097 -4.512354 -5.258253 -1.047766 -0.106619 0.479419 0.000000 0.000000 0.000000 10.027778 -3.455117 2.401631 -33.434784 -10.133705 39.959443 -0.184218 -84.913088 0.019732 -9.027211 -9.895734 0.826699 0.187495 0.345309 -0.000000 0.000000 0.000000 0.000000 0.000000 0.000000 0.000000 -0.472404 0.343893 1.720838 60.460217 -30.502584 32.530503 1.509208 55.421933 0.006451 -3.382820 6.068446 -0.182879 0.064047 -0.023060 0.000000 0.000000 0.000000 0.000000 0.000000 0.000000 0.000000 
